<svg width="228" height="79" viewBox="0 0 228 79" fill="none" xmlns="http://www.w3.org/2000/svg">
<path d="M179.592 38.1121C178.593 42.6392 173.879 46.0425 166.76 47.7581C159.677 49.4649 150.38 49.4498 140.557 47.2815C130.735 45.1133 122.295 41.2131 116.588 36.683C110.853 32.1298 108.01 27.0587 109.01 22.5316C110.009 18.0045 114.722 14.6012 121.842 12.8856C128.925 11.1788 138.222 11.1939 148.045 13.3622C157.867 15.5304 166.307 19.4306 172.013 23.9607C177.749 28.5139 180.591 33.585 179.592 38.1121Z" fill="#7C1010" stroke="black"/>
<path d="M127.968 37.3333C127.968 38.6013 127.373 39.8507 126.21 41.0324C125.045 42.2163 123.335 43.3054 121.183 44.2308C116.879 46.0809 110.899 47.2374 104.268 47.2374C97.6359 47.2374 91.6559 46.0809 87.3524 44.2308C85.1998 43.3054 83.4897 42.2163 82.3249 41.0324C81.1623 39.8507 80.5667 38.6013 80.5667 37.3333C80.5667 36.0653 81.1623 34.8159 82.3249 33.6342C83.4897 32.4503 85.1998 31.3612 87.3524 30.4358C91.6559 28.5857 97.6359 27.4292 104.268 27.4292C110.899 27.4292 116.879 28.5857 121.183 30.4358C123.335 31.3612 125.045 32.4503 126.21 33.6342C127.373 34.8159 127.968 36.0653 127.968 37.3333Z" fill="#7C1010" stroke="black"/>
<rect x="191.345" y="13.7563" width="7.23766" height="37.5453" transform="rotate(-36.0255 191.345 13.7563)" fill="#140D0D"/>
<rect x="212.154" y="40.7118" width="7.23766" height="20.3559" fill="#140D0D"/>
<rect x="211.701" y="60.1572" width="7.23766" height="20.3559" transform="rotate(-25.8934 211.701 60.1572)" fill="#140D0D"/>
<rect x="197.688" y="9.49942" width="7.23766" height="71.9242" transform="rotate(68.5827 197.688 9.49942)" fill="#140D0D"/>
<rect width="5.88689" height="34.0199" transform="matrix(0.690748 -0.723096 0.450917 0.892566 149.769 9.68506)" fill="#140D0D"/>
<rect x="164.224" y="36.6406" width="5.02792" height="20.3559" fill="#140D0D"/>
<rect width="5.51804" height="19.3256" transform="matrix(0.819704 -0.572788 0.319543 0.947572 163.91 56.086)" fill="#140D0D"/>
<rect width="6.98353" height="53.4172" transform="matrix(0.262902 0.964823 -0.870781 0.491672 154.175 5.42825)" fill="#140D0D"/>
<rect width="4.70564" height="31.2935" transform="matrix(-0.426234 -0.904613 -0.241789 0.970329 70.1533 10.5898)" fill="#140D0D"/>
<rect width="2.47999" height="20.3559" transform="matrix(-1 0 0 1 63.0232 37.5453)" fill="#140D0D"/>
<rect width="3.86875" height="18.5639" transform="matrix(-0.576676 -0.816973 -0.164079 0.986447 63.1782 56.9908)" fill="#140D0D"/>
<rect width="6.79845" height="34.8736" transform="matrix(-0.133205 0.991089 0.657892 0.753112 67.98 6.33295)" fill="#140D0D"/>
<rect width="6.77855" height="36.3053" transform="matrix(-0.77823 -0.627979 -0.548151 0.83638 32.2241 4.25684)" fill="#140D0D"/>
<rect width="6.52271" height="20.3559" transform="matrix(-1 0 0 1 13.4714 31.2124)" fill="#140D0D"/>
<rect width="6.66497" height="19.9881" transform="matrix(-0.880406 -0.47422 -0.400802 0.916165 13.8792 50.6578)" fill="#140D0D"/>
<rect width="7.14646" height="65.8111" transform="matrix(-0.333286 0.942826 0.916917 0.399077 26.5085 0)" fill="#140D0D"/>
<rect width="6.8429" height="36.4767" transform="matrix(-0.782958 -0.622074 -0.5541 0.83245 49.0125 12.3992)" fill="#140D0D"/>
<rect width="6.62462" height="20.3559" transform="matrix(-1 0 0 1 29.9666 39.3548)" fill="#140D0D"/>
<rect width="6.74583" height="20.0386" transform="matrix(-0.883444 -0.468536 -0.406039 0.913856 30.3806 58.8002)" fill="#140D0D"/>
<rect width="7.15895" height="66.6767" transform="matrix(-0.337904 0.941181 0.919155 0.393896 43.2075 8.14236)" fill="#140D0D"/>
</svg>